<?xml version="1.0" encoding="utf-8"?>
<!-- Generator: Adobe Illustrator 23.0.1, SVG Export Plug-In . SVG Version: 6.00 Build 0)  -->
<svg version="1.1" id="Layer_1" xmlns="http://www.w3.org/2000/svg" xmlns:xlink="http://www.w3.org/1999/xlink" x="0px" y="0px"
	 viewBox="0 0 2000 2000" style="enable-background:new 0 0 2000 2000;" xml:space="preserve">
<style type="text/css">
	.st0{fill:#FBA81C;}
	.st1{fill:#F2F2F2;}
	.st2{opacity:0.67;}
	.st3{fill:none;stroke:#000000;stroke-miterlimit:10;}
	.st4{fill:none;stroke:#000000;stroke-width:1.2023;stroke-miterlimit:10;}
	.st5{fill:none;stroke:#000000;stroke-width:0.9893;stroke-miterlimit:10;}
	.st6{fill:none;stroke:#000000;stroke-width:1.1647;stroke-miterlimit:10;}
	.st7{fill:none;stroke:#000000;stroke-width:0.9868;stroke-miterlimit:10;}
	.st8{fill:none;stroke:#000000;stroke-width:1.1865;stroke-miterlimit:10;}
	.st9{fill:none;stroke:#000000;stroke-width:1.0506;stroke-miterlimit:10;}
	.st10{opacity:0.64;}
	.st11{opacity:0.64;fill:none;stroke:#000000;stroke-width:1.0495;stroke-miterlimit:10;}
	.st12{opacity:0.64;fill:none;stroke:#000000;stroke-miterlimit:10;}
	.st13{opacity:0.64;fill:none;stroke:#000000;stroke-width:1.0481;stroke-miterlimit:10;}
	.st14{opacity:0.64;fill:none;stroke:#000000;stroke-width:1.0109;stroke-miterlimit:10;}
	.st15{opacity:0.64;fill:none;stroke:#000000;stroke-width:1.0933;stroke-miterlimit:10;}
	.st16{fill:#FFFFFF;}
	.st17{fill:#080808;}
	.st18{clip-path:url(#SVGID_2_);}
	.st19{fill:none;}
</style>
<path class="st0" d="M1176.66,987.56c-8.77-40.5,0.32-83.06,24.25-116.9c0.59-0.84,1.2-1.67,1.8-2.5
	c29.1-39.5,75.94-65.19,128.65-65.19c4.75,0,9.45,0.22,14.1,0.62c1.05,0.09,2.09,0.2,3.14,0.31c63.29,6.83,114.71,53.84,129.3,115.8
	c5.25,22.29,8.98,45.15,11.09,68.48c1.35,14.84,2.04,29.87,2.04,45.06c0,112.4-80.4,272.92-238.97,477.08
	c-115.5,148.72-229.07,264.56-233.86,269.42l-25.14,25.57c-1.54,1.57-4.07,1.54-5.58-0.06l-24.56-26.13
	c-4.6-4.88-113.68-121.26-224.62-270.49c-152.18-204.74-229.35-365.39-229.35-477.5c0-66.28,12.99-130.58,38.6-191.14
	c7.09-16.75,15.04-33,23.85-48.73c17.54-31.34,38.47-60.6,62.6-87.5c6.04-6.77,12.3-13.38,18.77-19.85
	c9.97-9.97,20.31-19.46,30.99-28.48c23.64-19.93,38.48-48.59,39.76-79.49c0.08-2.02,0.13-4.05,0.13-6.09
	c0-58.57-34.95-109.13-85.1-131.92c-7.18-3.26-14.67-5.96-22.43-8.03c-0.13-0.04-0.26-0.08-0.38-0.13
	c-13.73-5.38-25.83-11.09-36.26-17.11c-15.23-8.77-26.87-18.09-35.61-28.5c-8.83-10.52-13.48-20.91-15.79-29.98
	c-1.54-6.07-2.04-11.55-2.04-16.09c0-11.33,3.09-28.51,17.83-46.08c8.74-10.4,20.38-19.73,35.61-28.5
	c25.09-14.46,59.89-27.18,103.42-37.78c85.16-20.77,197.77-32.2,317.08-32.2c119.33,0,231.94,11.43,317.1,32.2
	c43.53,10.6,78.33,23.32,103.42,37.78c15.22,8.77,26.87,18.1,35.61,28.5c14.74,17.57,17.83,34.75,17.83,46.08
	c0,11.32-3.09,28.51-17.83,46.07c-5.13,6.11-11.26,11.84-18.53,17.3c-5.12,3.86-10.79,7.58-17.08,11.2
	c-6.63,3.82-13.91,6.37-21.49,7.44c-54,7.62-96.59,20.96-128.36,40.26c-20.58,12.51-36.63,27.51-48.31,45.1
	c-15.2,22.88-22.24,49.15-25.48,76.01c-2.82,23.45-2.75,47.37-2.69,69.89c0.02,4.75,0.04,9.44,0.02,14.09
	c-0.06,23-0.81,44.66-5.54,63.68c-8.14,32.61-26.93,59.57-55.26,79.8c-15.31,10.93-33.4,19.9-54.1,26.71
	c-36.89,12.16-70.19,13.61-77.72,13.78c-0.04-0.02-0.09,0-0.13,0c-0.36-0.02-0.73-0.02-1.09-0.02h-0.37
	c-102.69,0-186.23,83.55-186.23,186.24c0,102.7,83.54,186.25,186.23,186.25c102.71,0,186.25-83.55,186.25-186.25c0,0,0-0.05,0-0.07
	C1184,1006.81,1179.25,999.52,1176.66,987.56z"/>
</svg>
